<?xml version="1.0" encoding="UTF-8" standalone="no"?>
<svg
   width="553.28003"
   height="94.364998"
   viewBox="0 0 253.85917 43.297052"
   class="css-1j8o68f"
   version="1.1"
   id="svg17"
   sodipodi:docname="logo.svg"
   inkscape:version="1.3 (0e150ed6c4, 2023-07-21)"
   xmlns:inkscape="http://www.inkscape.org/namespaces/inkscape"
   xmlns:sodipodi="http://sodipodi.sourceforge.net/DTD/sodipodi-0.dtd"
   xmlns="http://www.w3.org/2000/svg"
   xmlns:svg="http://www.w3.org/2000/svg">
  <sodipodi:namedview
     id="namedview19"
     pagecolor="#ffffff"
     bordercolor="#000000"
     borderopacity="0.25"
     inkscape:showpageshadow="2"
     inkscape:pageopacity="0.0"
     inkscape:pagecheckerboard="0"
     inkscape:deskcolor="#d1d1d1"
     showgrid="false"
     inkscape:zoom="1.9099557"
     inkscape:cx="246.07901"
     inkscape:cy="71.991199"
     inkscape:window-width="1920"
     inkscape:window-height="1001"
     inkscape:window-x="-9"
     inkscape:window-y="-9"
     inkscape:window-maximized="1"
     inkscape:current-layer="svg17" />
  <defs
     id="SvgjsDefs2381" />
  <g
     id="SvgjsG2382"
     featurekey="PG4fjM-0"
     transform="matrix(2.1761674,0,0,2.4250193,0,-26.502516)"
     fill="#3b3c98">
    <g
       transform="translate(-270,-140)"
       id="g11">
      <g
         id="g9">
        <path
           d="m 279,161 c -0.736,0 -1.375,0.405 -1.722,1 -0.172,0.295 -0.278,0.635 -0.278,1 0,1.102 0.897,2 2,2 1.103,0 2,-0.898 2,-2 0,-0.365 -0.105,-0.705 -0.278,-1 -0.347,-0.595 -0.985,-1 -1.722,-1 z"
           id="path3" />
        <path
           d="m 293,161 c -0.736,0 -1.375,0.405 -1.722,1 -0.172,0.295 -0.278,0.635 -0.278,1 0,1.102 0.897,2 2,2 1.103,0 2,-0.898 2,-2 0,-0.365 -0.105,-0.705 -0.278,-1 -0.347,-0.595 -0.985,-1 -1.722,-1 z"
           id="path5" />
        <path
           d="m 299,159 v -1 l -6,-1.715 -7,-4.285 h -11 v 1 h 6 v 1 h -11 v 1 h 12 v 1 h -10 v 1 h 5 v 1 h -2 v 1 h -4 v 1 h 5 v 1 h -1 v 1 h -3 v 1 h 4 c 0,-0.352 0.072,-0.686 0.184,-1 0.414,-1.162 1.512,-2 2.816,-2 1.305,0 2.402,0.838 2.816,2 0.111,0.314 0.184,0.648 0.184,1 h 8 c 0,-0.352 0.072,-0.686 0.184,-1 0.414,-1.162 1.512,-2 2.816,-2 1.305,0 2.402,0.838 2.816,2 0.111,0.314 0.184,0.648 0.184,1 h 3 v -1 h 1 v -3 z"
           id="path7" />
      </g>
    </g>
  </g>
  <text
     xml:space="preserve"
     style="font-style:normal;font-variant:normal;font-weight:bold;font-stretch:normal;font-size:37.923px;font-family:'Microsoft YaHei UI';-inkscape-font-specification:'Microsoft YaHei UI, Bold';font-variant-ligatures:normal;font-variant-caps:normal;font-variant-numeric:normal;font-variant-east-asian:normal;fill:#000000;stroke:#000000;stroke-width:1.14994;stroke-dasharray:none;stroke-opacity:1"
     x="81.956642"
     y="31.19521"
     id="text1"
     transform="scale(0.93477298,1.0697785)"><tspan
       sodipodi:role="line"
       id="tspan1"
       style="font-style:normal;font-variant:normal;font-weight:bold;font-stretch:normal;font-size:37.923px;font-family:'Microsoft YaHei UI';-inkscape-font-specification:'Microsoft YaHei UI, Bold';font-variant-ligatures:normal;font-variant-caps:normal;font-variant-numeric:normal;font-variant-east-asian:normal;stroke:#000000;stroke-width:1.14994;stroke-dasharray:none;stroke-opacity:1"
       x="81.956642"
       y="31.19521">CarXplore</tspan></text>
</svg>
